<svg width="119" height="29" viewBox="0 0 119 29" fill="none" xmlns="http://www.w3.org/2000/svg">
<path d="M38.4003 21.3H32.7003L31.3003 25.4H29.0003L34.4003 10.3H36.9003L42.3003 25.4H39.9003L38.4003 21.3ZM33.4003 19.4H37.9003L35.7003 12.8H35.6003L33.4003 19.4ZM53.9003 19.9C53.9003 23.3 52.1003 25.5 49.4003 25.5C48.0003 25.6 46.7003 24.8 46.0003 23.6H45.9003V29H43.7003V14.3H45.9003V16.1C46.6003 14.9 47.9003 14.1 49.4003 14.2C52.0003 14.2 53.9003 16.4 53.9003 19.9ZM51.6003 19.9C51.6003 17.7 50.5003 16.2 48.7003 16.2C47.0003 16.2 45.9003 17.7 45.9003 19.9C45.9003 22.1 47.0003 23.6 48.7003 23.6C50.4003 23.6 51.6003 22.1 51.6003 19.9ZM65.8003 19.9C65.8003 23.3 64.0003 25.5 61.3003 25.5C59.9003 25.6 58.6003 24.8 57.9003 23.6H57.8003V29H55.6003V14.3H57.8003V16.1C58.5003 14.9 59.8003 14.1 61.3003 14.2C64.0003 14.2 65.8003 16.4 65.8003 19.9ZM63.5003 19.9C63.5003 17.7 62.4003 16.2 60.6003 16.2C58.9003 16.2 57.8003 17.7 57.8003 19.9C57.8003 22.1 58.9003 23.6 60.6003 23.6C62.4003 23.6 63.5003 22.1 63.5003 19.9ZM73.7003 21.1C73.9003 22.6 75.3003 23.6 77.3003 23.6C79.2003 23.6 80.5003 22.6 80.5003 21.3C80.5003 20.1 79.7003 19.4 77.8003 18.9L75.9003 18.4C73.2003 17.7 71.9003 16.4 71.9003 14.3C71.9003 11.7 74.1003 9.9 77.3003 9.9C80.4003 9.9 82.6003 11.7 82.7003 14.3H80.5003C80.4003 12.8 79.1003 11.9 77.3003 11.9C75.5003 11.9 74.3003 12.8 74.3003 14.2C74.3003 15.3 75.1003 15.9 77.0003 16.4L78.6003 16.8C81.7003 17.5 82.9003 18.8 82.9003 21C82.9003 23.8 80.7003 25.6 77.2003 25.6C73.9003 25.6 71.7003 23.9 71.5003 21.1H73.7003ZM87.7003 11.7V14.3H89.8003V16.1H87.7003V22.2C87.7003 23.1 88.1003 23.6 89.0003 23.6C89.2003 23.6 89.5003 23.6 89.7003 23.5V25.3C89.3003 25.4 88.9003 25.4 88.5003 25.4C86.3003 25.4 85.4003 24.6 85.4003 22.4V16.1H83.8003V14.3H85.4003V11.7H87.7003ZM90.9003 19.9C90.9003 16.4 92.9003 14.3 96.0003 14.3C99.1003 14.3 101.1 16.5 101.1 19.9C101.1 23.4 99.1003 25.5 96.0003 25.5C92.9003 25.5 90.9003 23.3 90.9003 19.9ZM98.9003 19.9C98.9003 17.5 97.8003 16.1 96.0003 16.1C94.2003 16.1 93.1003 17.5 93.1003 19.9C93.1003 22.3 94.2003 23.7 96.0003 23.7C97.9003 23.6 98.9003 22.2 98.9003 19.9ZM103.1 14.3H105.2V16.2H105.3C105.6 15 106.7 14.2 107.9 14.2C108.2 14.2 108.4 14.2 108.7 14.3V16.4C108.4 16.3 108 16.3 107.7 16.3C107 16.3 106.4 16.5 106 17C105.6 17.5 105.3 18.1 105.4 18.8V25.3H103.2L103.1 14.3ZM118.9 22.1C118.6 24.1 116.7 25.5 114.2 25.5C111 25.5 109.1 23.4 109.1 19.9C109.1 16.4 111.1 14.2 114.1 14.2C117.1 14.2 119 16.3 119 19.6V20.4H111.3V20.5C111.2 21.3 111.5 22.1 112.1 22.7C112.7 23.3 113.4 23.6 114.3 23.6C115.4 23.7 116.4 23.1 116.8 22.1C116.8 22.1 118.9 22.1 118.9 22.1ZM111.3 18.8H116.7C116.7 18.1 116.5 17.3 116 16.8C115.5 16.3 114.8 16 114.1 16C113.4 16 112.7 16.3 112.1 16.8C111.6 17.4 111.3 18.1 111.3 18.8ZM32.6003 0.4C33.6003 0.3 34.5003 0.7 35.1003 1.4C35.8003 2.1 36.1003 3.1 35.9003 4.1C35.9003 6.5 34.7003 7.9 32.5003 7.9H30.0003V0.4H32.6003ZM31.1003 6.8H32.4003C33.1003 6.8 33.7003 6.6 34.2003 6C34.7003 5.5 34.9003 4.8 34.8003 4.1C34.9003 3.4 34.7003 2.7 34.2003 2.2C33.8003 1.7 33.1003 1.4 32.4003 1.4H31.1003V6.8ZM37.2003 5C37.1003 4 37.6003 3 38.4003 2.5C39.2003 2 40.3003 2 41.1003 2.5C41.9003 3 42.4003 4 42.3003 5C42.4003 6 41.9003 7 41.1003 7.5C40.3003 8 39.2003 8 38.4003 7.5C37.6003 7 37.1003 6.1 37.2003 5ZM41.2003 5C41.2003 3.8 40.7003 3.1 39.8003 3.1C38.9003 3.1 38.4003 3.8 38.4003 5C38.4003 6.2 38.9003 7 39.8003 7C40.7003 7 41.2003 6.3 41.2003 5ZM49.1003 7.9H48.0003L46.9003 3.7H46.8003L45.7003 7.9H44.6003L43.1003 2.2H44.2003L45.2003 6.5H45.3003L46.4003 2.2H47.4003L48.5003 6.5H48.6003L49.6003 2.2H50.7003C50.6003 2.2 49.1003 7.9 49.1003 7.9ZM51.8003 2.2H52.8003V3.1H52.9003C53.2003 2.4 53.8003 2 54.5003 2.1C55.0003 2.1 55.6003 2.3 55.9003 2.7C56.3003 3.1 56.4003 3.7 56.4003 4.2V7.9H55.3003V4.5C55.3003 3.6 54.9003 3.1 54.1003 3.1C53.7003 3.1 53.4003 3.2 53.1003 3.5C52.8003 3.8 52.7003 4.2 52.8003 4.5V7.8H51.7003C51.8003 7.9 51.8003 2.2 51.8003 2.2ZM58.1003 0H59.2003V7.9H58.1003V0ZM60.7003 5C60.6003 4 61.1003 3 61.9003 2.5C62.7003 2 63.8003 2 64.6003 2.5C65.4003 3 65.9003 4 65.8003 5C65.9003 6 65.4003 7 64.6003 7.5C63.8003 8 62.7003 8 61.9003 7.5C61.0003 7 60.6003 6.1 60.7003 5ZM64.7003 5C64.7003 3.8 64.2003 3.1 63.3003 3.1C62.4003 3.1 61.9003 3.8 61.9003 5C61.9003 6.2 62.4003 7 63.3003 7C64.1003 7 64.7003 6.3 64.7003 5ZM66.9003 6.3C66.9003 5.3 67.6003 4.7 68.9003 4.6L70.4003 4.5V4C70.4003 3.4 70.0003 3.1 69.3003 3.1C68.7003 3.1 68.3003 3.3 68.2003 3.7H67.2003C67.3003 2.7 68.2003 2.1 69.4003 2.1C70.8003 2.1 71.5003 2.8 71.5003 4V7.9H70.5003V7.1H70.4003C70.1003 7.7 69.4003 8 68.8003 8C68.3003 8 67.9003 7.9 67.5003 7.6C67.1003 7.2 66.9003 6.8 66.9003 6.3ZM70.4003 5.8V5.3L69.1003 5.4C68.4003 5.5 68.0003 5.7 68.0003 6.2C68.0003 6.7 68.4003 7 69.0003 7C69.3003 7 69.7003 6.9 69.9003 6.7C70.2003 6.5 70.3003 6.2 70.4003 5.8ZM72.8003 5C72.8003 3.2 73.7003 2.1 75.0003 2.1C75.7003 2.1 76.3003 2.5 76.7003 3.1H76.8003V0H77.9003V7.9H76.9003V7H76.8003C76.5003 7.6 75.8003 8 75.1003 8C73.7003 8 72.8003 6.8 72.8003 5ZM73.9003 5C73.9003 6.2 74.4003 6.9 75.3003 6.9C76.2003 6.9 76.8003 6.2 76.8003 5C76.8003 3.8 76.2003 3.1 75.3003 3.1C74.5003 3.1 73.9003 3.8 73.9003 5ZM82.3003 5C82.2003 4 82.7003 3 83.5003 2.5C84.3003 2 85.4003 2 86.2003 2.5C87.0003 3 87.5003 4 87.4003 5C87.5003 6 87.0003 7 86.2003 7.5C85.4003 8 84.3003 8 83.5003 7.5C82.7003 7 82.2003 6.1 82.3003 5ZM86.3003 5C86.3003 3.8 85.8003 3.1 84.9003 3.1C84.0003 3.1 83.5003 3.8 83.5003 5C83.5003 6.2 84.0003 7 84.9003 7C85.8003 7 86.3003 6.3 86.3003 5ZM88.8003 2.2H89.8003V3.1H89.9003C90.2003 2.4 90.8003 2 91.5003 2.1C92.0003 2.1 92.6003 2.3 92.9003 2.7C93.3003 3.1 93.4003 3.7 93.4003 4.2V7.9H92.3003V4.5C92.3003 3.6 91.9003 3.1 91.1003 3.1C90.7003 3.1 90.4003 3.2 90.1003 3.5C89.9003 3.8 89.7003 4.2 89.8003 4.5V7.8H88.7003L88.8003 2.2ZM99.4003 0.799999V2.2H100.6V3.1H99.4003V6C99.4003 6.6 99.6003 6.9 100.2 6.9C100.3 6.9 100.5 6.9 100.6 6.9V7.8C100.4 7.8 100.2 7.9 100 7.9C98.8003 7.9 98.3003 7.5 98.3003 6.4V3.2H97.4003V2.3H98.3003V0.9L99.4003 0.799999ZM102.1 0H103.2V3.1H103.3C103.6 2.4 104.2 2 104.9 2.1C105.4 2.1 106 2.3 106.3 2.7C106.7 3.1 106.8 3.7 106.8 4.2V7.9H105.7V4.5C105.7 3.6 105.3 3.1 104.5 3.1C104.1 3.1 103.8 3.2 103.5 3.5C103.2 3.8 103.1 4.2 103.1 4.5V7.8H102V0H102.1ZM112.9 6.3C112.6 7.4 111.6 8.1 110.6 7.9C109.9 7.9 109.2 7.6 108.7 7C108.2 6.4 108 5.7 108.1 4.9C108 4.2 108.2 3.4 108.7 2.8C109.2 2.2 109.9 1.9 110.6 1.9C112.1 1.9 113 3 113 4.8V5.2H109.2V5.3C109.2 5.7 109.3 6.1 109.6 6.4C109.9 6.7 110.3 6.9 110.7 6.9C111.2 7 111.7 6.7 112 6.2C111.9 6.3 112.9 6.3 112.9 6.3ZM109.2 4.5H111.9C111.9 4.1 111.8 3.7 111.5 3.5C111.3 3.2 110.9 3.1 110.5 3.1C110.1 3.1 109.8 3.3 109.5 3.5C109.3 3.8 109.2 4.1 109.2 4.5ZM17.5003 13.8C17.5003 11.8 18.6003 9.9 20.3003 8.8C19.2003 7.2 17.5003 6.3 15.6003 6.2C13.6003 6 11.7003 7.4 10.7003 7.4C9.70034 7.4 8.10034 6.2 6.40034 6.3C4.20034 6.4 2.20033 7.6 1.10033 9.6C-1.19967 13.6 0.500335 19.5 2.70034 22.7C3.80034 24.3 5.10033 26 6.80033 26C8.40033 25.9 9.10033 24.9 11.0003 24.9C13.0003 24.9 13.5003 26 15.3003 25.9C17.1003 25.9 18.2003 24.3 19.2003 22.7C20.0003 21.6 20.6003 20.3 21.0003 19C18.9003 18.2 17.5003 16.1 17.5003 13.8ZM14.3003 4.2C15.3003 3 15.7003 1.5 15.6003 0C14.1003 0.2 12.8003 0.9 11.8003 2C10.8003 3.1 10.3003 4.5 10.4003 6C12.0003 6 13.4003 5.3 14.3003 4.2Z" fill="white"/>
</svg>
