<svg width="50" height="50" viewBox="0 0 50 50" fill="none" xmlns="http://www.w3.org/2000/svg">
<path d="M0 8C0 3.58172 3.58172 0 8 0H42C46.4183 0 50 3.58172 50 8V42C50 46.4183 46.4183 50 42 50H8C3.58172 50 0 46.4183 0 42V8Z" fill="#F6F7F8"/>
<g clip-path="url(#clip0_26:161)">
<path d="M30.2004 33.4999V40.9999L24.9004 38.8999L19.4004 40.9999V33.3999C20.8004 35.2999 22.5004 34.8999 24.2004 34.0999C24.5004 33.9999 24.8004 33.9999 25.1004 34.0999C27.0004 34.8999 28.8004 35.3999 30.2004 33.4999Z" fill="#00C9C9"/>
<path d="M24.8 16.3C21.8 16.3 19.5 18.7 19.5 21.6C19.5 24.6 21.9 26.9 24.8 26.9C27.7 26.9 30.1 24.5 30.1 21.6C30.1 18.7 27.8 16.3 24.8 16.3Z" fill="#00C9C9"/>
<path d="M36.2003 22.1L35.7003 21.3C35.4003 20.8 35.3003 20.2 35.4003 19.6L35.7003 18.4C36.0003 17.4 35.5003 16.3 34.5003 15.9L33.6003 15.5C33.0003 15.2 32.7003 14.7 32.5003 14.2L32.1003 13C31.8003 12 30.8003 11.4 29.7003 11.5L28.7003 11.6C28.1003 11.7 27.5003 11.5 27.0003 11.2L26.1003 10.4C25.3003 9.79995 24.1003 9.79995 23.3003 10.4L22.6003 11.2C22.2003 11.5 21.7003 11.7 21.0003 11.7L19.9003 11.5C18.9003 11.4 17.9003 12.1 17.5003 13L17.2003 14C17.0003 14.6 16.7003 15.1 16.1003 15.3L15.1003 15.8C14.1003 16.3 13.7003 17.3 14.0003 18.4L14.2003 19.4C14.4003 20 14.2003 20.5 14.0003 21.1L13.4003 22.1C12.9003 23 13.0003 24.1 13.8003 24.8L14.5003 25.5C15.0003 25.9 15.2003 26.4 15.3003 27V28.2C15.4003 29.2 16.1003 30.0999 17.2003 30.2999L18.2003 30.5C18.8003 30.6 19.3003 30.7999 19.7003 31.4L20.4003 32.2999C21.0003 33.1999 22.1003 33.5 23.1003 33.1L24.0003 32.7C24.6003 32.4 25.1003 32.4 25.7003 32.7L26.7003 33.1C27.7003 33.5 28.8003 33.1999 29.4003 32.2999L30.0003 31.5C30.3003 31 30.8003 30.7 31.5003 30.6L32.6003 30.4C33.6003 30.1999 34.4003 29.2999 34.4003 28.2999L34.5003 27.2999C34.5003 26.6999 34.7003 26.1 35.2003 25.7L36.0003 24.9C36.6003 24.1 36.8003 23 36.2003 22.1ZM24.9003 28.6C21.0003 28.6 18.0003 25.5 18.0003 21.7C18.0003 17.9 21.0003 14.8 24.9003 14.8C28.7003 14.8 31.8003 17.9 31.8003 21.7C31.7003 25.5 28.7003 28.6 24.9003 28.6Z" fill="#00C9C9"/>
</g>
<defs>
<clipPath id="clip0_26:161">
<rect width="24" height="31" fill="white" transform="translate(13 10)"/>
</clipPath>
</defs>
</svg>
