<svg width="130" height="47" viewBox="0 0 130 47" fill="none" xmlns="http://www.w3.org/2000/svg">
<path d="M41.8789 20.1378V24.4148H48.2184V41.4923H52.6532V24.4148H58.9927V20.1378H41.8789ZM78.2553 21.378C76.9676 20.4903 75.0402 20.0185 72.6627 20.0185C71.5913 20.0185 66.3128 20.1317 66.0903 20.1378L65.2527 20.1552V41.4923H69.7164V33.753H72.5668C74.2611 33.7904 75.9389 33.4179 77.4579 32.6667C79.5396 31.3716 80.7855 29.08 80.7358 26.6325C80.7358 24.2442 79.9035 22.4756 78.2553 21.378V21.378ZM69.705 24.4148C70.5775 24.4148 71.8941 24.3521 72.4359 24.3521C75.5367 24.3521 76.1692 25.3017 76.1692 26.7239C76.1788 27.5551 75.7993 28.3436 75.1432 28.8563C74.2288 29.2967 73.215 29.4934 72.2012 29.4246H69.7164L69.7041 24.4148H69.705ZM90.2101 24.8639C88.0158 24.8473 85.914 25.7464 84.4125 27.3436C82.8551 28.9363 82.0009 31.0844 82.0411 33.3091C82.0105 35.5451 82.8647 37.7027 84.4186 39.3146C85.9201 40.9065 88.0193 41.803 90.2101 41.7882C91.7361 41.8074 93.2324 41.3722 94.5088 40.5375V41.2251H98.9149V25.2277L94.5769 26.132C93.2813 25.2834 91.7605 24.8412 90.2101 24.8639V24.8639ZM93.1861 30.1923C93.9801 31.0348 94.412 32.1532 94.3893 33.3091C94.4155 34.4736 93.9827 35.6025 93.1861 36.4537C92.4655 37.2388 91.4482 37.6862 90.3811 37.6862C89.3149 37.6862 88.2968 37.2388 87.577 36.4537C86.7795 35.6008 86.3494 34.4693 86.379 33.303C86.3537 32.148 86.7839 31.0296 87.577 30.1871C88.2872 29.3872 89.3071 28.9302 90.3785 28.9302C91.4499 28.9302 92.4698 29.3872 93.18 30.1871L93.1861 30.1923V30.1923ZM110.003 31.5971L108.293 30.9434C106.754 30.3742 106.754 30.2036 106.754 29.9712C106.754 29.6065 106.754 28.9355 108.715 28.9355C110.124 28.939 111.511 29.2758 112.763 29.919L113.983 30.4882V25.8987L113.413 25.6881C111.883 25.1119 110.263 24.8134 108.63 24.8073C104.685 24.8073 102.325 26.6725 102.325 29.7945C102.325 32.9165 104.605 34.0367 106.361 34.6738L108.196 35.3283C109.975 35.9594 110.146 36.1352 110.146 36.465C110.146 36.9316 110.146 37.7105 107.917 37.7105C106.246 37.7062 104.61 37.2336 103.197 36.3458L101.908 35.606V40.3208L102.371 40.5601C104.085 41.4035 105.976 41.8317 107.888 41.8109C112.079 41.8109 114.581 39.8551 114.581 36.5852C114.61 33.5876 112.523 32.5292 110.003 31.5979V31.5971ZM124.843 31.5971L123.133 30.9434C121.593 30.3742 121.593 30.2036 121.593 29.9712C121.593 29.6065 121.593 28.9355 123.555 28.9355C124.963 28.939 126.35 29.2758 127.602 29.919L128.822 30.4882V25.8987L128.252 25.6881C126.723 25.1119 125.102 24.8134 123.469 24.8073C119.524 24.8073 117.164 26.6725 117.164 29.7945C117.164 32.9165 119.444 34.0367 121.2 34.6738L123.036 35.3283C124.815 35.9594 124.986 36.1352 124.986 36.465C124.986 36.9316 124.986 37.7105 122.756 37.7105C121.086 37.7062 119.45 37.2336 118.036 36.3458L116.748 35.606V40.3208L117.21 40.5601C118.924 41.4035 120.815 41.8317 122.728 41.8109C126.918 41.8109 129.42 39.8551 129.42 36.5852C129.449 33.5876 127.391 32.5292 124.842 31.5979L124.843 31.5971Z" fill="#122F53"/>
<path d="M58.7018 41.5376C59.983 41.5376 61.0217 40.5014 61.0217 39.2232C61.0217 37.9451 59.983 36.9089 58.7018 36.9089C57.4205 36.9089 56.3818 37.9451 56.3818 39.2232C56.3818 40.5014 57.4205 41.5376 58.7018 41.5376Z" fill="url(#paint0_linear_26:273)"/>
<path d="M14.6316 45.3245C18.9548 45.3245 22.9237 42.7178 23.4804 39.5139L24.379 31.5622C22.6916 32.4091 22.1472 34.2839 18.5901 32.8277C18.5901 32.8277 15.0731 30.9138 14.0925 30.617C9.22661 29.1382 4.62077 33.1002 4.57715 33.1611L5.85534 39.4217C6.41722 42.6595 10.3574 45.3245 14.6316 45.3245Z" fill="url(#paint1_linear_26:273)"/>
<path d="M26.5087 18.3335C26.13 13.1504 22.4926 8.78028 17.4549 7.45644L17.7306 4.90365L19.9266 3.78696L20.0139 3.74257L21.573 2.96011C21.8967 2.79735 22.1428 2.51361 22.257 2.16981C22.3705 1.82689 22.3434 1.45263 22.1803 1.12885L21.9883 0.75111C21.9665 0.709332 21.943 0.668425 21.9177 0.629258C21.5407 0.0400177 20.7782 -0.168871 20.1526 0.146203L19.6815 0.383814L19.6474 0.400351L15.2013 2.60239C14.943 2.71989 14.765 2.96533 14.7345 3.24733L14.3227 7.04824C7.90121 7.06826 2.6698 12.0416 2.21262 18.3335C0.92745 18.5815 0 19.7026 0 21.0064V22.2867C0.00174497 23.7419 1.15168 24.937 2.60872 25.0005L4.40866 38.9047C4.77074 43.2565 8.21443 46.5404 12.4146 46.5404H16.5414C20.7424 46.5404 24.1844 43.2591 24.5421 38.9543L26.349 24.9805C27.7031 24.8029 28.7169 23.654 28.7195 22.291V21.0116C28.7213 19.7052 27.793 18.5815 26.5078 18.3335H26.5087ZM14.3602 9.09013C19.637 9.09013 23.9706 13.1374 24.4496 18.2812H22.449C21.9796 14.2323 18.5446 11.0841 14.3628 11.0841C10.1819 11.0841 6.73819 14.2323 6.27141 18.2821H4.27081C4.74893 13.1382 9.08081 9.091 14.3602 9.091V9.09013ZM20.4972 18.2812H18.282C17.8562 16.463 16.2317 15.1775 14.3602 15.1775C12.4887 15.1775 10.8642 16.463 10.4384 18.2812H8.22403C8.68383 15.255 11.2917 13.019 14.3602 13.019C17.4287 13.019 20.0366 15.2558 20.4972 18.2812ZM5.68685 32.4361L4.7245 25.0136H12.3395L11.8466 29.6874C8.95255 29.5934 6.8996 31.1279 5.68685 32.4361V32.4361ZM22.4542 38.7306C22.1838 41.9875 19.6405 44.4428 16.5405 44.4428H12.4154C9.31463 44.4428 6.77222 41.9875 6.49651 38.681L5.99483 34.8017C6.45376 34.0428 8.31564 31.3681 11.6668 31.4003L11.0474 37.2797C10.9662 38.0482 11.5081 38.7419 12.2593 38.8246L12.6807 38.8716C12.7278 38.8768 12.774 38.8803 12.8211 38.8803C13.5313 38.8742 14.1211 38.332 14.1866 37.627L14.7642 32.1375C14.8732 32.1863 14.9805 32.2307 15.0913 32.2855C18.9538 34.1716 21.6367 33.6041 23.2246 32.7773L22.4551 38.7306H22.4542ZM23.5221 30.4795C23.0021 31.0191 20.5941 33.0749 15.8417 30.7554C15.5381 30.6074 15.2432 30.4821 14.9517 30.3663L15.5154 25.0118H24.2289L23.5221 30.4795V30.4795ZM26.6448 22.2849C26.6448 22.459 26.5767 22.6261 26.4537 22.7488C26.3315 22.8724 26.164 22.9421 25.9904 22.9429H2.73262C2.37054 22.9429 2.07651 22.6496 2.07564 22.2884V21.0081C2.07651 20.6469 2.37054 20.3536 2.73262 20.3536H25.9904C26.3525 20.3536 26.6456 20.6469 26.6465 21.0081L26.6448 22.2849Z" fill="#122F53"/>
<path d="M16.7634 40.9335C16.1317 41.0702 15.7304 41.6907 15.8673 42.3209C16.0034 42.951 16.6264 43.3514 17.2572 43.2165C17.8889 43.0807 18.2911 42.4593 18.1559 41.83C18.0904 41.5262 17.9063 41.2616 17.6455 41.0937C17.3837 40.9257 17.067 40.8674 16.7634 40.9335V40.9335ZM17.6053 38.3311C17.3881 38.379 17.2214 38.5513 17.1813 38.7698C17.142 38.9874 17.238 39.2084 17.4256 39.3285C17.6114 39.4478 17.8531 39.4443 18.0355 39.3172C18.2178 39.191 18.3059 38.9673 18.2588 38.7515C18.1942 38.4556 17.902 38.2676 17.6053 38.332V38.3311ZM10.0112 41.6751C9.79049 41.7229 9.65002 41.9405 9.69801 42.1616C9.74599 42.3818 9.96411 42.5219 10.1849 42.4732C10.4065 42.4253 10.5461 42.2086 10.4989 41.9875C10.4754 41.8822 10.4117 41.7899 10.3201 41.7308C10.2285 41.6724 10.1177 41.6524 10.0112 41.6751V41.6751ZM14.5508 39.0622C14.2436 39.1284 14.0072 39.3729 13.9514 39.681C13.8955 39.99 14.0316 40.3016 14.296 40.4705C14.5604 40.6402 14.9006 40.6341 15.1589 40.4557C15.4163 40.2764 15.541 39.9604 15.4747 39.6549C15.3831 39.2372 14.9695 38.9717 14.5508 39.0622ZM9.93532 39.0622C9.51653 39.1536 9.25042 39.5662 9.34203 39.9839C9.43277 40.4017 9.84633 40.6672 10.2651 40.5758C10.6839 40.4853 10.95 40.0727 10.8584 39.6541C10.8148 39.4539 10.6935 39.2781 10.5199 39.1667C10.3471 39.0561 10.136 39.0187 9.93532 39.0622ZM17.1795 37.0273C17.6263 36.9307 17.97 36.5747 18.052 36.1273C18.1323 35.6791 17.9351 35.2256 17.5512 34.9793C17.1673 34.733 16.6718 34.7417 16.2966 35.0019C15.9214 35.2613 15.7408 35.7209 15.8377 36.1656C15.9703 36.7731 16.5706 37.1587 17.1804 37.0273H17.1795ZM12.0651 41.4905C11.7021 41.7177 11.5913 42.1955 11.8181 42.5576C12.045 42.9197 12.524 43.0311 12.8869 42.8048C13.2508 42.5794 13.3624 42.1024 13.1373 41.7395C13.0283 41.5645 12.8538 41.4401 12.6531 41.3931C12.4516 41.3469 12.2404 41.3817 12.0651 41.4914V41.4905ZM19.8729 37.5356C20.0998 37.8977 20.5796 38.0082 20.9426 37.781C21.3064 37.5547 21.4163 37.076 21.1895 36.7131C20.9626 36.351 20.4828 36.2405 20.1189 36.4676C19.9444 36.5764 19.8197 36.7496 19.7734 36.9507C19.7272 37.1509 19.763 37.3615 19.8729 37.5356ZM19.7708 39.7428C19.407 39.9691 19.2962 40.4478 19.5239 40.8099C19.7508 41.1729 20.2298 41.2834 20.5936 41.0562C20.9574 40.8299 21.0673 40.3512 20.8405 39.9892C20.7314 39.8151 20.5569 39.6906 20.3563 39.6445C20.1556 39.5984 19.9444 39.634 19.77 39.7428H19.7708ZM9.49821 36.5381C9.17277 36.0203 8.48962 35.8636 7.97136 36.1874C7.45223 36.512 7.29432 37.1935 7.61888 37.7105C7.94344 38.2284 8.62747 38.3859 9.14572 38.0622C9.39525 37.9064 9.57324 37.6583 9.63868 37.3728C9.70499 37.0873 9.65438 36.7862 9.49821 36.5373V36.5381Z" fill="#122F53"/>
<defs>
<linearGradient id="paint0_linear_26:273" x1="56.3875" y1="39.2232" x2="61.0217" y2="39.2232" gradientUnits="userSpaceOnUse">
<stop stop-color="#59C4C9"/>
<stop offset="0.37" stop-color="#41B1BE"/>
<stop offset="1" stop-color="#0F8BA8"/>
</linearGradient>
<linearGradient id="paint1_linear_26:273" x1="4.57715" y1="37.8064" x2="24.3784" y2="37.8064" gradientUnits="userSpaceOnUse">
<stop stop-color="#59C4C9"/>
<stop offset="0.37" stop-color="#41B1BE"/>
<stop offset="1" stop-color="#0F8BA8"/>
</linearGradient>
</defs>
</svg>
